<svg width="32" height="32" viewBox="0 0 32 32" fill="none" xmlns="http://www.w3.org/2000/svg">
<path fill-rule="evenodd" clip-rule="evenodd" d="M9.57544 0.510492C11.2372 0.433992 11.767 0.416992 16 0.416992C20.233 0.416992 20.7629 0.435409 22.4232 0.510492C24.0835 0.585575 25.2169 0.850492 26.2085 1.23441C27.2469 1.62683 28.189 2.24024 28.9682 3.03358C29.7615 3.81133 30.3735 4.75199 30.7645 5.79183C31.1499 6.78349 31.4134 7.91683 31.4899 9.57433C31.5664 11.2389 31.5834 11.7687 31.5834 16.0003C31.5834 20.2333 31.5649 20.7632 31.4899 22.4249C31.4148 24.0824 31.1499 25.2157 30.7645 26.2074C30.3735 27.2474 29.7605 28.1896 28.9682 28.9685C28.189 29.7618 27.2469 30.3738 26.2085 30.7648C25.2169 31.1502 24.0835 31.4137 22.426 31.4902C20.7629 31.5667 20.233 31.5837 16 31.5837C11.767 31.5837 11.2372 31.5652 9.57544 31.4902C7.91794 31.4151 6.7846 31.1502 5.79294 30.7648C4.75299 30.3738 3.81077 29.7608 3.03185 28.9685C2.23906 28.1903 1.62555 27.2485 1.2341 26.2088C0.850187 25.2172 0.586687 24.0838 0.510187 22.4263C0.433687 20.7617 0.416687 20.2319 0.416687 16.0003C0.416687 11.7673 0.435104 11.2375 0.510187 9.57716C0.58527 7.91683 0.850187 6.78349 1.2341 5.79183C1.62613 4.75211 2.24011 3.81035 3.03327 3.03216C3.81108 2.23954 4.75236 1.62604 5.79152 1.23441C6.78319 0.850492 7.91652 0.586992 9.57402 0.510492H9.57544ZM22.2971 3.31549C20.6538 3.24041 20.1608 3.22483 16 3.22483C11.8393 3.22483 11.3463 3.24041 9.70294 3.31549C8.18285 3.38491 7.35835 3.63849 6.80869 3.85241C6.08194 4.13574 5.56202 4.47149 5.0166 5.01691C4.49958 5.5199 4.10169 6.13223 3.8521 6.80899C3.63819 7.35866 3.3846 8.18316 3.31519 9.70324C3.2401 11.3466 3.22452 11.8396 3.22452 16.0003C3.22452 20.1611 3.2401 20.6541 3.31519 22.2974C3.3846 23.8175 3.63819 24.642 3.8521 25.1917C4.10144 25.8674 4.49952 26.4808 5.0166 26.9837C5.51952 27.5008 6.13294 27.8989 6.80869 28.1482C7.35835 28.3622 8.18285 28.6157 9.70294 28.6852C11.3463 28.7602 11.8379 28.7758 16 28.7758C20.1622 28.7758 20.6538 28.7602 22.2971 28.6852C23.8172 28.6157 24.6417 28.3622 25.1914 28.1482C25.9181 27.8649 26.438 27.5292 26.9834 26.9837C27.5005 26.4808 27.8986 25.8674 28.1479 25.1917C28.3619 24.642 28.6154 23.8175 28.6849 22.2974C28.7599 20.6541 28.7755 20.1611 28.7755 16.0003C28.7755 11.8396 28.7599 11.3466 28.6849 9.70324C28.6154 8.18316 28.3619 7.35866 28.1479 6.80899C27.8646 6.08224 27.5289 5.56233 26.9834 5.01691C26.4804 4.49993 25.8681 4.10204 25.1914 3.85241C24.6417 3.63849 23.8172 3.38491 22.2971 3.31549V3.31549ZM14.0096 20.8042C15.1212 21.267 16.359 21.3294 17.5115 20.9809C18.664 20.6324 19.6598 19.8946 20.3288 18.8935C20.9978 17.8924 21.2984 16.6901 21.1794 15.4919C21.0604 14.2937 20.5291 13.174 19.6763 12.3241C19.1326 11.7808 18.4752 11.3647 17.7515 11.106C17.0277 10.8472 16.2556 10.7521 15.4907 10.8275C14.7258 10.903 13.9872 11.1471 13.3279 11.5423C12.6687 11.9374 12.1052 12.4739 11.6782 13.1129C11.2512 13.752 10.9711 14.4778 10.8583 15.2381C10.7454 15.9984 10.8025 16.7742 11.0255 17.5098C11.2484 18.2454 11.6317 18.9224 12.1477 19.492C12.6637 20.0617 13.2996 20.5098 14.0096 20.8042ZM10.3362 10.3365C11.08 9.59271 11.963 9.0027 12.9348 8.60017C13.9066 8.19764 14.9481 7.99046 16 7.99046C17.0519 7.99046 18.0935 8.19764 19.0653 8.60017C20.0371 9.0027 20.9201 9.59271 21.6639 10.3365C22.4076 11.0803 22.9976 11.9633 23.4002 12.9351C23.8027 13.9069 24.0099 14.9485 24.0099 16.0003C24.0099 17.0522 23.8027 18.0938 23.4002 19.0656C22.9976 20.0374 22.4076 20.9204 21.6639 21.6642C20.1617 23.1663 18.1244 24.0102 16 24.0102C13.8757 24.0102 11.8383 23.1663 10.3362 21.6642C8.83404 20.162 7.99015 18.1247 7.99015 16.0003C7.99015 13.876 8.83404 11.8386 10.3362 10.3365V10.3365ZM25.7864 9.18333C25.9707 9.00946 26.1182 8.80037 26.2203 8.56846C26.3223 8.33654 26.3768 8.0865 26.3805 7.83314C26.3842 7.57979 26.337 7.32827 26.2418 7.09347C26.1465 6.85868 26.0051 6.64538 25.826 6.46621C25.6468 6.28705 25.4335 6.14565 25.1987 6.05039C24.9639 5.95514 24.7124 5.90796 24.459 5.91165C24.2057 5.91534 23.9556 5.96984 23.7237 6.0719C23.4918 6.17396 23.2827 6.32151 23.1089 6.50583C22.7707 6.86428 22.5856 7.34041 22.5928 7.83314C22.5999 8.32587 22.7989 8.7964 23.1473 9.14485C23.4958 9.4933 23.9663 9.69223 24.459 9.69942C24.9518 9.7066 25.4279 9.52147 25.7864 9.18333V9.18333Z" fill="white"/>
</svg>
