<svg width="521" height="59" viewBox="0 0 521 59" fill="none" xmlns="http://www.w3.org/2000/svg">
<path d="M10.4651 6.84571C10.1193 5.03102 10.5034 3.15216 11.5329 1.62146C12.6102 0.471036 14.1513 -0.119422 15.7163 0.0201695C17.2319 -0.055242 18.6981 0.573714 19.691 1.72735C20.6663 3.1698 21.0345 4.94117 20.7173 6.65638H20.4241C20.738 5.01658 20.4082 3.31743 19.5029 1.9167C18.5658 0.846498 17.1953 0.264063 15.7785 0.336266C14.2932 0.182234 12.819 0.72775 11.7831 1.81079C10.7966 3.26607 10.4077 5.04706 10.6962 6.78313L10.4651 6.84571Z" fill="white"/>
<path d="M13.9601 13.0598C13.9601 12.1115 13.7928 10.9531 14.2948 10.4268C15.1617 10.3979 16.0287 10.4396 16.8893 10.5536C17.4328 11.2692 16.8893 12.5127 16.8893 13.1866C16.4048 13.3101 15.9044 13.3663 15.404 13.355C14.8956 13.3438 14.3904 13.2732 13.8979 13.1432L13.9601 13.0598Z" fill="white"/>
<path d="M6.13508 6.33984C9.85954 6.33984 11.5122 8.27809 13.3115 10.1313C12.8206 11.2304 12.8206 12.4883 13.3115 13.5858C11.7385 16.145 8.75352 17.4542 5.82112 16.8718C5.59163 13.2488 4.44098 9.22473 6.13508 6.33984Z" fill="white"/>
<path d="M25.1112 6.19273C21.3039 6.19273 19.6082 8.11012 17.7675 9.96332C18.2583 11.0608 18.2583 12.3187 17.7675 13.4178C19.1492 15.6721 21.4489 17.0199 25.4459 16.7038C25.6977 13.0808 26.869 9.05837 25.1112 6.17188V6.19273Z" fill="white"/>
<path d="M16.1562 22.3071L15.863 22.1803L18.4989 16.0303L18.7922 16.1554L16.1562 22.3071Z" fill="white"/>
<path d="M105.454 1.51562H109.827V37.8928V58.2844H105.454V7.91918H105.307L84.0092 34.4817L62.7303 7.91918H62.5629V58.2844H58.2122V1.51562H62.5629L84.0092 27.8872L105.454 1.51562Z" fill="white"/>
<path d="M144.703 28.3113C141.146 25.067 139.347 24.0995 137.275 24.0995C133.635 24.0995 129.452 27.9102 125.413 34.8191V58.285H121.354V20.8953H125.329V30.7325H125.539C129.911 23.7401 134.367 20.2021 138.49 20.2021C141.063 20.2021 143.365 21.3606 146.984 24.6033L144.703 28.3113Z" fill="white"/>
<path d="M140.896 52.8291H146.252V58.2844H140.896V52.8291Z" fill="white"/>
<path d="M215.757 10.3424C209.653 6.83015 202.763 4.93844 195.733 4.84378C182.378 4.61754 171.367 15.3324 171.141 28.7781C171.135 29.1776 171.138 29.5756 171.149 29.9751C171.149 44.7188 181.612 54.9571 196.256 54.9571C202.534 54.9571 208.622 53.2082 216.3 49.1216V53.7136C210.187 57.0815 203.35 58.8962 196.382 59.0005C179.226 59.0005 166.443 46.6153 166.443 29.9526C166.452 13.8177 179.452 0.744285 195.478 0.753912C195.641 0.753912 195.802 0.755526 195.963 0.758735C202.827 0.882281 209.579 2.50763 215.757 5.51928V10.3424Z" fill="white"/>
<path d="M294.654 29.5109V32.3124H273.271V1.875H294.005V4.6556H276.471V15.5245H292.101V18.2618H276.471V29.5109H294.654Z" fill="white"/>
<path d="M304.049 31.6177C302.222 31.0465 300.557 30.0421 299.194 28.6895L300.45 26.2041C301.693 27.3995 303.177 28.3108 304.802 28.8788C306.6 29.5656 308.508 29.9169 310.43 29.9121C312.567 30.0614 314.698 29.5319 316.519 28.3943C317.832 27.5423 318.623 26.0726 318.61 24.4969C318.666 23.4075 318.264 22.3453 317.501 21.5703C316.733 20.8242 315.812 20.2562 314.803 19.9065C313.349 19.393 311.869 18.9646 310.366 18.6213C308.521 18.1752 306.704 17.612 304.928 16.9365C303.577 16.4199 302.377 15.5727 301.433 14.472C300.413 13.2093 299.899 11.6096 299.989 9.98584C299.974 8.49044 300.394 7.02555 301.202 5.77243C302.125 4.41663 303.419 3.36246 304.928 2.73831C306.919 1.93125 309.058 1.55099 311.204 1.62158C312.918 1.61837 314.623 1.85906 316.267 2.33881C317.781 2.73672 319.222 3.3769 320.535 4.23531L319.447 6.80411C318.199 5.96656 316.83 5.32799 315.389 4.90761C314.03 4.50167 312.621 4.28826 311.204 4.27703C309.097 4.13102 307 4.67014 305.22 5.81415C303.91 6.71749 303.126 8.21607 303.127 9.81576C303.076 10.9116 303.478 11.9786 304.237 12.7648C305.016 13.535 305.961 14.111 306.999 14.4496C308.108 14.8507 309.593 15.2711 311.454 15.7364C313.279 16.1712 315.075 16.7199 316.832 17.3778C318.18 17.8896 319.38 18.7304 320.327 19.8214C321.323 21.0713 321.831 22.6454 321.75 24.245C321.759 25.742 321.331 27.2069 320.515 28.4584C319.617 29.8736 318.309 30.9759 316.769 31.6177C314.777 32.4264 312.639 32.8067 310.492 32.7345C308.297 32.7345 306.117 32.3574 304.049 31.6177Z" fill="white"/>
<path d="M328.737 1.87402H331.938V32.3964H328.737V1.87402Z" fill="white"/>
<path d="M398.848 29.5109V32.3124H377.465V1.875H398.199V4.6556H380.665V15.5245H396.295V18.2618H380.665V29.5109H398.848Z" fill="white"/>
<path d="M431.633 1.875V32.3974H428.913L409.561 7.62553V32.3974H406.359V1.875H408.995L428.475 26.6469V1.875H431.633Z" fill="white"/>
<path d="M446.509 30.6485C444.15 29.3569 442.195 27.4331 440.859 25.0873C439.465 22.6709 438.743 19.9192 438.768 17.1242C438.744 14.3372 439.468 11.5935 440.859 9.18351C442.196 6.83291 444.161 4.90752 446.529 3.62392C449.027 2.2617 451.83 1.57337 454.668 1.6215C456.812 1.59743 458.941 1.97449 460.946 2.73823C462.788 3.45865 464.443 4.59784 465.778 6.06757L463.686 8.17269C461.343 5.76113 458.101 4.44702 454.753 4.54971C452.469 4.51762 450.217 5.09204 448.225 6.21358C446.29 7.24207 444.676 8.78719 443.559 10.6805C442.446 12.6412 441.874 14.8667 441.906 17.1242C441.871 19.3913 442.442 21.6248 443.559 23.5919C444.655 25.4948 446.247 27.0593 448.161 28.1214C450.158 29.2334 452.407 29.8061 454.689 29.7853C458.049 29.8944 461.297 28.5627 463.623 26.119L465.716 28.2257C464.372 29.6954 462.712 30.8346 460.862 31.5534C456.178 33.3521 450.954 33.0456 446.509 30.7111V30.6485Z" fill="white"/>
<path d="M493.919 29.5109V32.3124H472.537V1.875H493.271V4.6556H475.737V15.5245H491.387V18.2618H475.737V29.5109H493.919Z" fill="white"/>
<path d="M503.313 31.6184C501.521 31.0536 499.888 30.0716 498.543 28.7527L499.799 26.269C501.07 27.4531 502.584 28.3436 504.234 28.8795C506.024 29.5678 507.925 29.9192 509.84 29.9128C511.978 30.062 514.108 29.5325 515.928 28.3949C517.243 27.5429 518.034 26.0732 518.021 24.4976C518.075 23.4129 517.681 22.354 516.934 21.571C516.158 20.8345 515.238 20.2681 514.234 19.9071C512.773 19.3953 511.286 18.9653 509.778 18.6219C507.895 18.1598 506.043 17.5758 504.234 16.873C502.89 16.3547 501.697 15.5092 500.76 14.4085C499.725 13.1537 499.203 11.5509 499.295 9.9223C499.289 8.43012 499.709 6.9668 500.509 5.70887C501.44 4.37714 502.733 3.34705 504.234 2.73895C506.226 1.93349 508.363 1.55322 510.51 1.62222C512.229 1.6174 513.941 1.85809 515.594 2.33944C517.12 2.76142 518.569 3.43049 519.884 4.31938L518.816 6.88818C516.327 5.25159 513.42 4.37554 510.448 4.3611C508.341 4.21669 506.243 4.7558 504.463 5.89981C503.152 6.80315 502.369 8.30015 502.371 9.90144C502.329 10.9957 502.729 12.0595 503.48 12.8505C504.259 13.6191 505.204 14.1967 506.242 14.5352C507.351 14.9348 508.836 15.3567 510.719 15.8204C512.543 16.2585 514.338 16.8072 516.096 17.4634C517.434 17.9801 518.626 18.8192 519.568 19.9071C520.567 21.1554 521.073 22.7294 520.991 24.3307C521.003 25.8261 520.572 27.291 519.758 28.5425C518.853 29.9224 517.554 30.9958 516.033 31.6184C514.041 32.427 511.903 32.8073 509.756 32.7351C507.561 32.7351 505.381 32.358 503.313 31.6184Z" fill="white"/>
<path d="M240.612 56.4316L241.469 55.4416C242.102 56.4862 243.225 57.1312 244.44 57.1472C246.115 57.1472 246.993 56.1364 246.993 54.0939V45.667H241.971V44.4043H248.416V53.988C248.416 56.9162 247.055 58.3699 244.419 58.3699C242.908 58.4052 241.479 57.6783 240.612 56.4316Z" fill="white"/>
<path d="M252.746 52.3661V44.4463H254.19V52.3244C254.19 55.5895 255.717 57.1058 258.375 57.1058C261.032 57.1058 262.558 55.5895 262.558 52.3244V44.4463H263.961V52.3661C263.961 56.3469 261.868 58.4118 258.332 58.4118C254.797 58.4118 252.746 56.3469 252.746 52.3661Z" fill="white"/>
<path d="M282.687 44.4463V58.2851H281.284V47.2269L275.888 56.5169H275.196L269.904 47.2686V58.2851H268.522V44.4463H269.716L275.573 54.7889L281.474 44.5297L282.687 44.4463Z" fill="white"/>
<path d="M296.872 57.0204V58.2848H287.165V44.4443H296.579V45.7087H288.607V50.5751H295.722V51.817H288.607V56.9579L296.872 57.0204Z" fill="white"/>
<path d="M300.283 58.2831H301.747V44.4443H300.283V58.2831Z" fill="white"/>
<path d="M345.977 44.4463V58.2851H344.533V51.9666H335.934V58.2851H334.491V44.4463H335.934V50.5755H344.533V44.4463H345.977Z" fill="white"/>
<path d="M353.926 29.5116C356.336 29.5678 358.722 29.0255 360.873 27.9328C362.795 26.93 364.397 25.4057 365.497 23.5285C366.627 21.5597 367.199 19.315 367.149 17.0415C367.199 14.7743 366.627 12.5376 365.497 10.5753C364.378 8.75743 362.776 7.2893 360.873 6.34104C358.723 5.24036 356.338 4.69001 353.926 4.73975H344.971V29.5116H353.926ZM341.792 1.87574H354.094C356.997 1.83563 359.869 2.49988 362.462 3.81396C364.864 5.02215 366.869 6.90102 368.238 9.22594C369.64 11.6166 370.364 14.3491 370.33 17.1249C370.364 19.9087 369.64 22.6476 368.238 25.0463C366.891 27.36 364.917 29.2373 362.547 30.4599C359.952 31.7724 357.082 32.4367 354.178 32.3965H341.875L341.792 1.87574Z" fill="white"/>
<path d="M315.598 49.1844C315.598 46.9734 314.154 45.709 311.413 45.709H307.752V52.6806H311.413C314.07 52.6806 315.515 51.3745 315.515 49.1844H315.598ZM315.598 58.2851L312.46 53.8406C312.09 53.8615 311.721 53.8615 311.351 53.8406H307.669V58.2225H306.224V44.4463H311.351C314.844 44.4463 316.978 46.2353 316.978 49.1844C317.112 51.2093 315.794 53.0416 313.84 53.5454L317.189 58.2851H315.598Z" fill="white"/>
<path d="M328.486 53.3978L325.202 45.9625L321.893 53.3978H328.486ZM329.03 54.5771H321.372L319.719 58.2851H318.212L324.491 44.4463H325.933L332.209 58.2851H330.681L329.03 54.5771Z" fill="white"/>
<path d="M24.547 45.5421C24.0068 47.2012 23.2243 48.7704 22.225 50.1968C21.2401 51.6344 20.4114 53.1731 19.7564 54.7888H18.4161C18.8257 53.1892 19.342 51.62 19.9652 50.0909C20.2998 49.2485 20.7381 47.9857 21.3867 46.3636C22.0784 43.6889 22.3876 40.9308 22.3079 38.1694L25.32 37.3271C25.371 40.0788 25.1112 42.8273 24.547 45.5212V45.5421ZM21.5971 55.1883C23.1398 55.421 24.3781 56.5987 24.6936 58.139H16.1562V55.1883H21.5971ZM10.8222 55.1883H15.8439V58.1166H6.80445C7.29371 56.3115 8.9655 55.0937 10.8222 55.1883ZM9.23165 50.1759C8.22603 48.7302 7.43077 47.1498 6.8682 45.4779C6.31041 42.877 6.06498 40.2184 6.1351 37.5581L9.14718 38.2962C9.07228 41.0142 9.37508 43.729 10.0476 46.3636L11.4708 50.1133C12.0987 51.6296 12.6087 53.1924 12.9975 54.7888H11.6796C11.0229 53.1699 10.2022 51.6248 9.23165 50.1759ZM9.44042 38.3588L12.4111 39.0744C12.4111 39.4546 12.58 43.6873 12.8095 46.3427C12.9561 47.859 13.2063 49.2918 13.4581 50.8289C13.7083 52.366 13.898 53.4202 14.086 54.8723H13.3322C12.9354 53.2341 12.4111 51.628 11.7624 50.07C11.4293 49.2068 10.9895 47.9649 10.3409 46.2994C9.66991 43.7098 9.36711 41.0351 9.44042 38.3588ZM13.7928 39.4129L15.8853 34.2304V54.7888H14.4C14.2103 53.3143 13.9808 51.9665 13.7721 50.7022C13.5633 49.4378 13.2701 47.8157 13.1234 46.3636C12.8924 43.8558 12.7473 39.8959 12.725 39.2236L13.7928 39.4129ZM16.0941 34.1245C16.5339 35.2621 17.3706 37.6223 17.9778 39.2862V39.4322L18.8352 39.2428C18.8352 39.7065 18.6679 43.7932 18.4161 46.3427C18.2918 47.8157 18.04 49.2276 17.7882 50.7439C17.538 52.2618 17.3292 53.4202 17.1619 54.9573H16.1562L16.0941 34.1245ZM21.9318 38.3379C22.0178 41.0367 21.715 43.7322 21.0313 46.3427C20.4034 48.0483 19.9444 49.2276 19.6082 50.07C18.9962 51.6055 18.4926 53.1827 18.1037 54.7888H17.3499C17.538 53.3352 17.7675 51.9665 17.9778 50.7022C18.1866 49.4378 18.4798 47.774 18.6265 46.2786C18.8767 43.7098 19.0233 39.5814 19.0233 39.0744L21.9318 38.3379ZM26.1168 16.1782L25.9495 16.4525C26.9009 17.1152 27.7009 17.9768 28.2922 18.9796C29.9592 21.8597 30.8054 25.1473 30.7401 28.4799C30.7401 28.6275 30.3002 29.5115 28.501 30.5866C28.6221 28.2937 28.3097 25.9993 27.5798 23.8252C25.6929 22.1276 24.1454 20.0819 23.0187 17.8003L22.7477 17.9254C23.8474 20.1974 25.3582 22.24 27.2037 23.952C28.5695 28.0852 28.391 32.5793 26.7017 36.589L18.2695 39.0535C16.8256 35.0519 16.3873 33.7875 16.1786 33.388L16.3252 33.0078V31.1979C16.3905 28.8104 16.2646 26.4229 15.9475 24.0562C15.6749 22.9828 14.2103 18.9796 13.5203 17.0414C13.3529 16.6001 13.2063 16.2407 13.1649 16.0947H12.8509C12.9513 16.4541 13.0772 16.8055 13.2286 17.1473C13.9394 19.063 15.3195 23.0663 15.6335 24.0771C15.9522 26.4149 16.0781 28.7751 16.0112 31.1337V32.9035L13.6254 39.0535L4.7964 36.9484C4.54459 36.5473 2.70388 33.2404 4.14777 23.8669C6.17972 22.317 7.76864 20.252 8.75035 17.8837L8.47783 17.7169C7.51684 20.0562 5.94864 22.0923 3.939 23.6134C3.54536 25.9383 3.34933 28.2905 3.35251 30.6491L0.632082 28.7334C0.632082 28.7334 -0.204605 28.3114 1.07194 23.193C2.41064 17.7169 5.08963 16.8729 5.13107 16.8729L5.0259 16.4942C5.0259 16.4942 2.09669 17.4425 0.757987 23.193C-0.266757 27.4048 -0.0372705 28.6483 0.214533 29.027C0.464742 29.4073 0.338846 29.1955 0.381876 29.1955L3.26805 31.3022C3.11824 33.3896 3.57723 35.4755 4.58763 37.3062L5.80043 37.579C5.75421 40.2954 6.00601 43.0086 6.55424 45.6673C7.11522 47.3696 7.91844 48.9805 8.9384 50.4487C9.87708 51.8189 10.6899 53.271 11.3656 54.7888H10.8429C8.77107 54.7166 6.93035 56.1125 6.42834 58.139V58.3492H25.2578V58.139C24.8944 56.3372 23.4123 54.9814 21.5971 54.7888H20.0895C20.7285 53.2004 21.5286 51.6841 22.4752 50.2593C23.4792 48.796 24.2825 47.2028 24.861 45.5212C25.4012 42.7952 25.6546 40.021 25.6132 37.242L27.0156 36.8634C27.8252 34.9861 28.3145 32.9853 28.4595 30.9444C30.6987 29.7025 31.0126 28.6066 31.0126 28.5649C30.8867 19.2123 26.1582 16.2199 26.1168 16.1782Z" fill="white"/>
<path d="M260.154 17.9668C261.757 16.5564 262.627 14.4834 262.519 12.343C262.649 10.1802 261.776 8.07824 260.154 6.65505C258.165 5.19335 255.728 4.48417 253.27 4.65425H245.235V19.9676H253.27C255.728 20.1377 258.165 19.4285 260.154 17.9668ZM262.686 32.3961L255.781 22.5797C254.974 22.6648 254.165 22.7081 253.353 22.7065H245.235V32.3961H242.035V1.87365H253.353C256.614 1.6795 259.833 2.66627 262.434 4.65425C264.649 6.57002 265.862 9.40679 265.719 12.343C265.784 14.4947 265.153 16.6094 263.92 18.3679C262.645 20.0767 260.853 21.3266 258.815 21.9267L266.2 32.4586L262.686 32.3961Z" fill="white"/>
</svg>
