<svg width="177" height="583" viewBox="0 0 177 583" fill="none" xmlns="http://www.w3.org/2000/svg">
<g opacity="0.08">
<path d="M119.456 78.6073C115.508 57.7698 119.893 36.1953 131.644 18.6188C143.942 5.40877 161.533 -1.37129 179.397 0.2316C196.697 -0.634329 213.433 6.5878 224.767 19.8347C235.9 36.3979 240.102 56.7381 236.482 76.4334H233.135C236.718 57.604 232.953 38.0931 222.62 22.0089C211.923 9.7201 196.279 3.03217 180.107 3.86125C163.152 2.09254 146.325 8.35654 134.5 20.7928C123.24 37.5033 118.801 57.954 122.094 77.8888L119.456 78.6073Z" fill="#CFA87A"/>
<path d="M159.35 149.964C159.35 139.075 157.44 125.773 163.17 119.73C173.066 119.398 182.963 119.877 192.786 121.185C198.989 129.403 192.786 143.681 192.786 151.419C187.256 152.838 181.544 153.483 175.832 153.354C170.029 153.225 164.262 152.414 158.641 150.922L159.35 149.964Z" fill="#CFA87A"/>
<path d="M70.0298 72.8038C112.543 72.8038 131.408 95.0601 151.946 116.34C146.343 128.96 146.343 143.405 151.946 156.007C133.991 185.393 99.9185 200.427 66.4461 193.739C63.8265 152.138 50.6922 105.93 70.0298 72.8038Z" fill="#CFA87A"/>
<path d="M280.197 522.94C274.03 541.99 265.098 560.009 253.692 576.388C242.45 592.896 232.99 610.564 225.513 629.117H210.214C214.889 610.748 220.784 592.73 227.896 575.172C231.717 565.499 236.719 550.999 244.123 532.373C252.018 501.66 255.547 469.989 254.638 438.281L289.02 428.609C289.602 460.206 286.637 491.766 280.197 522.7V522.94ZM246.524 633.705C264.134 636.376 278.269 649.899 281.871 667.587H184.419V633.705H246.524ZM123.532 633.705H180.853V667.329H77.6708C83.2556 646.602 102.339 632.618 123.532 633.705ZM105.377 576.148C93.8977 559.548 84.8201 541.401 78.3985 522.203C72.0314 492.337 69.23 461.809 70.0304 431.262L104.412 439.737C103.557 470.947 107.014 502.12 114.691 532.373L130.936 575.43C138.103 592.84 143.924 610.785 148.363 629.117H133.319C125.824 610.527 116.455 592.785 105.377 576.148ZM107.76 440.455L141.669 448.672C141.669 453.039 143.597 501.641 146.216 532.133C147.89 549.544 150.746 565.997 153.62 583.647C156.477 601.297 158.641 613.402 160.788 630.075H152.183C147.654 611.264 141.669 592.822 134.265 574.932C130.463 565.02 125.442 550.76 118.038 531.636C110.379 501.899 106.923 471.186 107.76 440.455ZM157.441 452.56L181.326 393.05V629.117H164.372C162.207 612.186 159.587 596.709 157.204 582.191C154.821 567.673 151.474 549.046 149.8 532.373C147.162 503.576 145.507 458.105 145.252 450.386L157.441 452.56ZM183.709 391.834C188.73 404.897 198.281 431.999 205.212 451.104V452.781L214.999 450.607C214.999 455.932 213.089 502.857 210.214 532.133C208.795 549.046 205.921 565.26 203.047 582.67C200.191 600.099 197.808 613.401 195.897 631.052H184.419L183.709 391.834ZM250.345 440.216C251.327 471.205 247.871 502.157 240.067 532.133C232.899 551.718 227.66 565.26 223.822 574.932C216.836 592.564 211.087 610.675 206.649 629.117H198.044C200.191 612.425 202.81 596.709 205.212 582.191C207.595 567.673 210.942 548.567 212.615 531.396C215.472 501.899 217.145 454.494 217.145 448.672L250.345 440.216ZM298.116 185.762L296.206 188.912C307.066 196.521 316.198 206.415 322.947 217.93C341.975 251.001 351.635 288.752 350.889 327.019C350.889 328.714 345.868 338.865 325.33 351.209C326.713 324.881 323.147 298.535 314.815 273.571C293.277 254.078 275.613 230.587 262.751 204.389L259.659 205.825C272.211 231.914 289.457 255.368 310.522 275.026C326.112 322.486 324.075 374.092 304.792 420.134L208.541 448.433C192.059 402.483 187.056 387.965 184.673 383.378L186.347 379.011V358.229C187.093 330.814 185.656 303.399 182.036 276.224C178.925 263.898 162.207 217.93 154.33 195.674C152.42 190.607 150.746 186.48 150.273 184.804H146.689C147.835 188.931 149.273 192.965 151.001 196.89C159.114 218.888 174.868 264.856 178.452 276.463C182.09 303.307 183.527 330.409 182.763 357.492V377.814L155.53 448.433L54.7494 424.261C51.8752 419.655 30.864 381.683 47.3455 274.05C70.5397 256.252 88.6767 232.54 99.8827 205.346L96.7719 203.43C85.8025 230.293 67.902 253.673 44.9625 271.138C40.4692 297.835 38.2316 324.845 38.268 351.928L7.21503 329.93C7.21503 329.93 -2.3355 325.084 12.2359 266.311C27.5168 203.43 58.0967 193.739 58.5696 193.739L57.3691 189.391C57.3691 189.391 23.9331 200.28 8.6522 266.311C-3.04495 314.675 -0.425431 328.953 2.44883 333.301C5.3049 337.668 3.86783 335.236 4.359 335.236L37.3038 359.426C35.5938 383.396 40.833 407.347 52.3664 428.369L66.2102 431.501C65.6826 462.693 68.5569 493.848 74.8148 524.377C81.2182 543.925 90.3866 562.422 102.029 579.28C112.744 595.014 122.022 611.688 129.735 629.117H123.768C100.119 628.288 79.1079 644.317 73.3776 667.587V670H288.31V667.587C284.163 646.896 267.245 631.328 246.524 629.117H229.315C236.61 610.877 245.742 593.467 256.548 577.106C268.009 560.304 277.177 542.008 283.781 522.7C289.948 491.398 292.84 459.542 292.367 427.632L308.376 423.284C317.617 401.728 323.202 378.753 324.857 355.318C350.416 341.058 354 328.474 354 327.995C352.563 220.602 298.589 186.241 298.116 185.762Z" fill="#CFA87A"/>
</g>
</svg>
