<svg width="34" height="34" viewBox="0 0 34 34" fill="none" xmlns="http://www.w3.org/2000/svg">
<path fillRule="evenodd" clipRule="evenodd" d="M10.5753 1.51017C12.237 1.43367 12.7668 1.41667 16.9998 1.41667C21.2328 1.41667 21.7627 1.43509 23.423 1.51017C25.0833 1.58526 26.2167 1.85017 27.2083 2.23409C28.2468 2.62651 29.1888 3.23992 29.968 4.03325C30.7613 4.811 31.3733 5.75167 31.7643 6.79151C32.1497 7.78317 32.4132 8.91651 32.4897 10.574C32.5662 12.2386 32.5832 12.7684 32.5832 17C32.5832 21.233 32.5648 21.7628 32.4897 23.4246C32.4146 25.0821 32.1497 26.2154 31.7643 27.2071C31.3733 28.2471 30.7603 29.1893 29.968 29.9682C29.1888 30.7615 28.2468 31.3735 27.2083 31.7645C26.2167 32.1498 25.0833 32.4133 23.4258 32.4898C21.7627 32.5663 21.2328 32.5833 16.9998 32.5833C12.7668 32.5833 12.237 32.5649 10.5753 32.4898C8.91775 32.4148 7.78442 32.1498 6.79275 31.7645C5.75281 31.3735 4.81058 30.7604 4.03167 29.9682C3.23888 29.19 2.62537 28.2482 2.23392 27.2085C1.85 26.2168 1.5865 25.0835 1.51 23.426C1.4335 21.7614 1.4165 21.2316 1.4165 17C1.4165 12.767 1.43492 12.2372 1.51 10.5768C1.58509 8.9165 1.85 7.78317 2.23392 6.79151C2.62594 5.75179 3.23992 4.81003 4.03309 4.03184C4.81089 3.23922 5.75217 2.62572 6.79134 2.23409C7.783 1.85017 8.91634 1.58667 10.5738 1.51017H10.5753ZM23.2969 4.31517C21.6536 4.24009 21.1606 4.22451 16.9998 4.22451C12.8391 4.22451 12.3461 4.24009 10.7028 4.31517C9.18267 4.38459 8.35817 4.63817 7.8085 4.85209C7.08175 5.13542 6.56184 5.47117 6.01642 6.01659C5.4994 6.51958 5.10151 7.1319 4.85192 7.80867C4.638 8.35834 4.38442 9.18284 4.315 10.7029C4.23992 12.3463 4.22434 12.8393 4.22434 17C4.22434 21.1608 4.23992 21.6538 4.315 23.2971C4.38442 24.8172 4.638 25.6417 4.85192 26.1913C5.10125 26.8671 5.49934 27.4805 6.01642 27.9834C6.51934 28.5005 7.13275 28.8986 7.8085 29.1479C8.35817 29.3618 9.18267 29.6154 10.7028 29.6848C12.3461 29.7599 12.8377 29.7755 16.9998 29.7755C21.162 29.7755 21.6536 29.7599 23.2969 29.6848C24.817 29.6154 25.6415 29.3618 26.1912 29.1479C26.9179 28.8646 27.4378 28.5288 27.9833 27.9834C28.5003 27.4805 28.8984 26.8671 29.1478 26.1913C29.3617 25.6417 29.6153 24.8172 29.6847 23.2971C29.7598 21.6538 29.7753 21.1608 29.7753 17C29.7753 12.8393 29.7598 12.3463 29.6847 10.7029C29.6153 9.18284 29.3617 8.35834 29.1478 7.80867C28.8644 7.08192 28.5287 6.56201 27.9833 6.01659C27.4802 5.49961 26.8679 5.10172 26.1912 4.85209C25.6415 4.63817 24.817 4.38459 23.2969 4.31517ZM15.0094 21.8039C16.121 22.2666 17.3588 22.3291 18.5113 21.9806C19.6638 21.6321 20.6596 20.8943 21.3286 19.8932C21.9976 18.8921 22.2982 17.6897 22.1792 16.4916C22.0602 15.2934 21.5289 14.1737 20.6761 13.3238C20.1324 12.7804 19.4751 12.3644 18.7513 12.1056C18.0276 11.8469 17.2554 11.7518 16.4905 11.8272C15.7256 11.9027 14.987 12.1468 14.3277 12.5419C13.6685 12.9371 13.1051 13.4736 12.678 14.1126C12.251 14.7517 11.9709 15.4775 11.8581 16.2378C11.7452 16.9981 11.8023 17.7739 12.0253 18.5095C12.2482 19.2451 12.6315 19.922 13.1475 20.4917C13.6635 21.0614 14.2994 21.5095 15.0094 21.8039ZM11.336 11.3362C12.0798 10.5924 12.9628 10.0024 13.9346 9.59985C14.9064 9.19732 15.948 8.99013 16.9998 8.99013C18.0517 8.99013 19.0933 9.19732 20.0651 9.59985C21.0369 10.0024 21.9199 10.5924 22.6637 11.3362C23.4075 12.08 23.9975 12.963 24.4 13.9348C24.8025 14.9066 25.0097 15.9481 25.0097 17C25.0097 18.0519 24.8025 19.0934 24.4 20.0652C23.9975 21.0371 23.4075 21.9201 22.6637 22.6638C21.1615 24.166 19.1242 25.0099 16.9998 25.0099C14.8755 25.0099 12.8381 24.166 11.336 22.6638C9.83386 21.1617 8.98997 19.1244 8.98997 17C8.98997 14.8757 9.83386 12.8383 11.336 11.3362ZM26.7862 10.183C26.9705 10.0091 27.118 9.80005 27.2201 9.56813C27.3222 9.33622 27.3767 9.08618 27.3803 8.83282C27.384 8.57947 27.3369 8.32795 27.2416 8.09315C27.1463 7.85836 27.0049 7.64506 26.8258 7.46589C26.6466 7.28673 26.4333 7.14533 26.1985 7.05007C25.9637 6.95482 25.7122 6.90764 25.4589 6.91133C25.2055 6.91502 24.9555 6.96951 24.7235 7.07157C24.4916 7.17364 24.2825 7.32119 24.1087 7.5055C23.7705 7.86396 23.5854 8.34009 23.5926 8.83282C23.5998 9.32555 23.7987 9.79608 24.1471 10.1445C24.4956 10.493 24.9661 10.6919 25.4589 10.6991C25.9516 10.7063 26.4277 10.5211 26.7862 10.183Z" fill="white"/>
</svg>
